<?xml version="1.0" encoding="iso-8859-1"?>
<!-- Generator: Adobe Illustrator 19.0.0, SVG Export Plug-In . SVG Version: 6.00 Build 0)  -->
<svg version="1.1" id="Layer_1" xmlns="http://www.w3.org/2000/svg" xmlns:xlink="http://www.w3.org/1999/xlink" x="0px" y="0px"
	 viewBox="0 0 511.985 511.985" style="enable-background:new 0 0 511.985 511.985;" xml:space="preserve">
<path style="fill:#434A54;" d="M256.001,234.665c-5.89,0-10.671-4.781-10.671-10.672V10.671C245.33,4.78,250.111,0,256.001,0
	c5.891,0,10.657,4.78,10.657,10.671v213.322C266.658,229.884,261.892,234.665,256.001,234.665z"/>
<path style="fill:#DA4453;" d="M393.224,495.984c-34.656-60.107-67.545-155.839-95.092-276.851
	c-20.905-91.856-31.474-166.541-31.568-167.291c-0.75-5.25-5.234-9.172-10.547-9.172c-0.016,0-0.016,0-0.016,0
	c-5.312,0-9.812,3.891-10.562,9.156c-0.109,0.734-10.875,75.436-31.874,167.292c-27.671,121.027-60.467,216.774-94.826,276.913
	c-1.89,3.297-1.875,7.344,0.031,10.641c1.906,3.281,5.422,5.312,9.234,5.312h42.655c4.594,0,8.672-2.938,10.125-7.297
	c0.047-0.141,5.015-14.483,16.734-28.545c15.578-18.688,35.249-28.156,58.482-28.156c22.976,0,42.506,9.297,58.006,27.641
	c12.094,14.28,17.156,28.951,17.188,29.061c1.453,4.359,5.531,7.297,10.124,7.297h42.671c3.797,0,7.328-2.031,9.234-5.328
	S395.131,499.297,393.224,495.984z M285.634,369.332c-2.016,2.516-5.078,3.984-8.312,3.984h-42.663
	c-3.234,0-6.297-1.469-8.312-3.984c-2.031-2.531-2.797-5.828-2.094-8.983l21.328-95.997c1.094-4.891,5.422-8.359,10.421-8.359
	c5,0,9.329,3.469,10.407,8.359l21.318,95.997C288.43,363.504,287.664,366.801,285.634,369.332z"/>
<g>
	<path style="fill:#ED5564;" d="M362.178,351.989H149.802c-5.891,0-10.656,4.781-10.656,10.671v42.656
		c0,5.89,4.766,10.671,10.656,10.671h212.376c5.891,0,10.656-4.781,10.656-10.671V362.66
		C372.834,356.77,368.068,351.989,362.178,351.989z"/>
	<path style="fill:#ED5564;" d="M202.737,277.319h106.505c5.891,0,10.672-4.766,10.672-10.655v-42.671
		c0-5.891-4.781-10.672-10.672-10.672H202.737c-5.89,0-10.671,4.781-10.671,10.672v42.671
		C192.066,272.554,196.847,277.319,202.737,277.319z"/>
</g>
<g>
	<path style="fill:#DA4453;" d="M245.33,245.32c0,5.891-4.781,10.672-10.671,10.672c-5.891,0-10.656-4.781-10.656-10.672
		s4.766-10.655,10.656-10.655S245.33,239.43,245.33,245.32z"/>
	<path style="fill:#DA4453;" d="M286.648,245.32c0,5.891-4.765,10.672-10.655,10.672c-5.883,0-10.663-4.781-10.663-10.672
		s4.78-10.655,10.663-10.655C281.884,234.665,286.648,239.43,286.648,245.32z"/>
	<path style="fill:#DA4453;" d="M202.659,383.988c0,5.891-4.765,10.672-10.656,10.672s-10.671-4.781-10.671-10.672
		s4.781-10.672,10.671-10.672S202.659,378.097,202.659,383.988z"/>
	<path style="fill:#DA4453;" d="M245.33,383.988c0,5.891-4.781,10.672-10.671,10.672c-5.891,0-10.656-4.781-10.656-10.672
		s4.766-10.672,10.656-10.672S245.33,378.097,245.33,383.988z"/>
	<path style="fill:#DA4453;" d="M287.992,383.988c0,5.891-4.78,10.672-10.671,10.672c-5.883,0-10.663-4.781-10.663-10.672
		s4.78-10.672,10.663-10.672C283.212,373.316,287.992,378.097,287.992,383.988z"/>
	<path style="fill:#DA4453;" d="M330.648,383.988c0,5.891-4.766,10.672-10.656,10.672s-10.672-4.781-10.672-10.672
		s4.781-10.672,10.672-10.672S330.648,378.097,330.648,383.988z"/>
</g>
<g>
</g>
<g>
</g>
<g>
</g>
<g>
</g>
<g>
</g>
<g>
</g>
<g>
</g>
<g>
</g>
<g>
</g>
<g>
</g>
<g>
</g>
<g>
</g>
<g>
</g>
<g>
</g>
<g>
</g>
</svg>
