<svg width="512" height="512" xmlns="http://www.w3.org/2000/svg">

 <g>
  <title>background</title>
  <rect fill="none" id="canvas_background" height="402" width="582" y="-1" x="-1"/>
 </g>
 <g>
  <title>Layer 1</title>
  <rect id="svg_1" fill="#BCA48A" height="234.099" width="155.387" y="269.897" x="175.741"/>
  <path id="svg_2" fill="#9E9E9E" d="m261.444,28.961l0,-20.953c0,-4.423 -3.585,-8.008 -8.008,-8.008c-4.423,0 -8.008,3.585 -8.008,8.008l0,20.953c-3.464,0.882 -6.029,4.012 -6.029,7.752c0,4.423 3.585,8.008 8.008,8.008l12.057,0c4.423,0 8.008,-3.585 8.008,-8.008c0,-3.738 -2.565,-6.869 -6.028,-7.752z"/>
  <path id="svg_3" fill="#AEAEAF" d="m317.509,199.748l-128.148,0l8.278,-22.519l50.786,-138.105c1.715,-4.661 8.307,-4.661 10.022,0l50.786,138.105l8.276,22.519z"/>
  <polygon id="svg_4" fill="#9E9E9E" points="317.509,199.748 189.361,199.748 197.638,177.229 309.231,177.229 "/>
  <path id="svg_5" fill="#294235" d="m257.257,124.297l-7.644,0c-4.423,0 -8.008,-3.585 -8.008,-8.008c0,-4.423 3.585,-8.008 8.008,-8.008l7.644,0c4.423,0 8.008,3.585 8.008,8.008c0,4.423 -3.585,8.008 -8.008,8.008z"/>
  <rect id="svg_6" fill="#BCA48A" height="76.179" width="143.872" y="193.714" x="181.499"/>
  <rect id="svg_7" fill="#A58E77" height="17.763" width="143.872" y="193.714" x="181.499"/>
  <g id="svg_8">
   <path id="svg_9" fill="#294235" d="m241.239,239.002l-17.685,0l0,-16.515c0,-4.884 3.959,-8.843 8.843,-8.843l0,0c4.884,0 8.843,3.959 8.843,8.843l0,16.515l-0.001,0z"/>
   <path id="svg_10" fill="#294235" d="m283.316,239.002l-17.685,0l0,-16.515c0,-4.884 3.959,-8.843 8.843,-8.843l0,0c4.884,0 8.843,3.959 8.843,8.843l0,16.515l-0.001,0z"/>
   <path id="svg_11" fill="#294235" d="m199.185,239.002l-17.685,0l0,-16.515c0,-4.884 3.959,-8.843 8.843,-8.843l0,0c4.884,0 8.843,3.959 8.843,8.843l0,16.515l-0.001,0z"/>
   <path id="svg_12" fill="#294235" d="m325.37,239.002l-17.685,0l0,-16.515c0,-4.884 3.959,-8.843 8.843,-8.843l0,0c4.884,0 8.843,3.959 8.843,8.843l0,16.515l-0.001,0z"/>
  </g>
  <path id="svg_13" fill="#213028" d="m177.977,239.002l150.916,0c2.949,0 5.338,2.391 5.338,5.338l0,16.195l-161.593,0l0,-16.195c0,-2.948 2.391,-5.338 5.339,-5.338z"/>
  <g id="svg_14">
   <path id="svg_15" fill="#294235" d="m210.767,268.544c-4.423,0 -8.008,-3.585 -8.008,-8.008l0,-21.534c0,-4.423 3.585,-8.008 8.008,-8.008c4.423,0 8.008,3.585 8.008,8.008l0,21.534c0,4.423 -3.585,8.008 -8.008,8.008z"/>
   <path id="svg_16" fill="#294235" d="m253.432,268.544c-4.423,0 -8.008,-3.585 -8.008,-8.008l0,-21.534c0,-4.423 3.585,-8.008 8.008,-8.008s8.008,3.585 8.008,8.008l0,21.534c0,4.423 -3.585,8.008 -8.008,8.008z"/>
   <path id="svg_17" fill="#294235" d="m296.097,268.544c-4.423,0 -8.008,-3.585 -8.008,-8.008l0,-21.534c0,-4.423 3.585,-8.008 8.008,-8.008s8.008,3.585 8.008,8.008l0,21.534c0,4.423 -3.585,8.008 -8.008,8.008z"/>
  </g>
  <g id="svg_18">
   <rect id="svg_19" fill="#A58E77" height="18.738" width="155.387" y="359.278" x="175.741"/>
   <rect id="svg_20" fill="#A58E77" height="18.738" width="155.387" y="485.251" x="175.741"/>
   <rect id="svg_21" fill="#A58E77" height="17.763" width="155.387" y="279.259" x="175.741"/>
  </g>
  <path id="svg_22" fill="#AEAEAF" d="m325.37,201.726l-143.87,0c-4.423,0 -8.008,-3.585 -8.008,-8.008c0,-4.423 3.585,-8.008 8.008,-8.008l143.87,0c4.423,0 8.008,3.585 8.008,8.008c0,4.423 -3.585,8.008 -8.008,8.008z"/>
  <g id="svg_23">
   <path id="svg_24" fill="#BCA48A" d="m339.813,279.256l-172.51,0c-1.783,0 -3.448,-0.89 -4.439,-2.373l-2.687,-4.021c-1.2,-1.795 -1.2,-4.138 0,-5.933l2.687,-4.021c0.991,-1.483 2.656,-2.372 4.439,-2.372l172.511,0c1.646,0 3.198,0.759 4.211,2.056l3.135,4.021c1.505,1.93 1.505,4.635 0,6.565l-3.135,4.021c-1.013,1.299 -2.567,2.057 -4.212,2.057z"/>
   <path id="svg_25" fill="#BCA48A" d="m340.238,359.28l-173.606,0c-1.399,0 -2.742,-0.549 -3.74,-1.529l-4.987,-4.895c-2.132,-2.093 -2.132,-5.527 0,-7.619l4.987,-4.895c0.998,-0.98 2.342,-1.529 3.74,-1.529l173.606,0c1.399,0 2.742,0.549 3.74,1.529l4.987,4.895c2.132,2.093 2.132,5.528 0,7.619l-4.987,4.895c-0.999,0.98 -2.341,1.529 -3.74,1.529z"/>
  </g>
  <g id="svg_26">
   <path id="svg_27" fill="#294235" d="m199.435,338.811l-23.692,0l0,-29.396c0,-6.542 5.304,-11.846 11.846,-11.846l0,0c6.542,0 11.846,5.304 11.846,11.846l0,29.396l0,0z"/>
   <path id="svg_28" fill="#294235" d="m242.559,338.811l-23.692,0l0,-29.396c0,-6.542 5.304,-11.846 11.846,-11.846l0,0c6.542,0 11.846,5.304 11.846,11.846l0,29.396l0,0z"/>
   <path id="svg_29" fill="#294235" d="m288.002,338.811l-23.692,0l0,-29.396c0,-6.542 5.304,-11.846 11.846,-11.846l0,0c6.542,0 11.846,5.304 11.846,11.846l0,29.396z"/>
   <path id="svg_30" fill="#294235" d="m331.126,338.811l-23.692,0l0,-29.396c0,-6.542 5.304,-11.846 11.846,-11.846l0,0c6.542,0 11.846,5.304 11.846,11.846l0,29.396z"/>
  </g>
  <path id="svg_31" d="m273.595,512l-40.321,0c-4.423,0 -8.008,-3.585 -8.008,-8.008s3.585,-8.008 8.008,-8.008l40.321,0c4.423,0 8.008,3.585 8.008,8.008s-3.585,8.008 -8.008,8.008z"/>
  <g id="svg_32">
   <path id="svg_33" fill="#A58E77" d="m197.833,392.282c-4.423,0 -8.008,-3.585 -8.008,-8.008l0,-3.649c0,-4.423 3.585,-8.008 8.008,-8.008s8.008,3.585 8.008,8.008l0,3.649c0,4.423 -3.585,8.008 -8.008,8.008z"/>
   <path id="svg_34" fill="#A58E77" d="m225.286,392.282c-4.423,0 -8.008,-3.585 -8.008,-8.008l0,-3.649c0,-4.423 3.585,-8.008 8.008,-8.008c4.423,0 8.008,3.585 8.008,8.008l0,3.649c0,4.423 -3.585,8.008 -8.008,8.008z"/>
   <path id="svg_35" fill="#A58E77" d="m252.74,392.282c-4.423,0 -8.008,-3.585 -8.008,-8.008l0,-3.649c0,-4.423 3.585,-8.008 8.008,-8.008s8.008,3.585 8.008,8.008l0,3.649c0,4.423 -3.585,8.008 -8.008,8.008z"/>
   <path id="svg_36" fill="#A58E77" d="m280.194,392.282c-4.423,0 -8.008,-3.585 -8.008,-8.008l0,-3.649c0,-4.423 3.585,-8.008 8.008,-8.008s8.008,3.585 8.008,8.008l0,3.649c0,4.423 -3.585,8.008 -8.008,8.008z"/>
   <path id="svg_37" fill="#A58E77" d="m307.647,392.282c-4.423,0 -8.008,-3.585 -8.008,-8.008l0,-3.649c0,-4.423 3.585,-8.008 8.008,-8.008s8.008,3.585 8.008,8.008l0,3.649c0,4.423 -3.585,8.008 -8.008,8.008z"/>
   <path id="svg_38" fill="#A58E77" d="m197.833,439.196c-4.423,0 -8.008,-3.585 -8.008,-8.008l0,-14.595c0,-4.423 3.585,-8.008 8.008,-8.008s8.008,3.585 8.008,8.008l0,14.595c0,4.423 -3.585,8.008 -8.008,8.008z"/>
   <path id="svg_39" fill="#A58E77" d="m252.74,439.196c-4.423,0 -8.008,-3.585 -8.008,-8.008l0,-14.595c0,-4.423 3.585,-8.008 8.008,-8.008s8.008,3.585 8.008,8.008l0,14.595c0,4.423 -3.585,8.008 -8.008,8.008z"/>
   <path id="svg_40" fill="#A58E77" d="m307.647,439.196c-4.423,0 -8.008,-3.585 -8.008,-8.008l0,-14.595c0,-4.423 3.585,-8.008 8.008,-8.008s8.008,3.585 8.008,8.008l0,14.595c0,4.423 -3.585,8.008 -8.008,8.008z"/>
  </g>
  <g id="svg_41">
   <path id="svg_42" fill="#BCA48A" d="m347.262,512l-205.378,0c-4.423,0 -8.008,-3.585 -8.008,-8.008s3.585,-8.008 8.008,-8.008l205.379,0c4.423,0 8.008,3.585 8.008,8.008s-3.586,8.008 -8.009,8.008z"/>
   <path id="svg_43" fill="#BCA48A" d="m376.454,512l-6.776,0c-4.423,0 -8.008,-3.585 -8.008,-8.008s3.585,-8.008 8.008,-8.008l6.776,0c4.423,0 8.008,3.585 8.008,8.008c0.001,4.423 -3.584,8.008 -8.008,8.008z"/>
  </g>
  <g id="svg_51"/>
  <g id="svg_52"/>
  <g id="svg_53"/>
  <g id="svg_54"/>
  <g id="svg_55"/>
  <g id="svg_56"/>
  <g id="svg_57"/>
  <g id="svg_58"/>
  <g id="svg_59"/>
  <g id="svg_60"/>
  <g id="svg_61"/>
  <g id="svg_62"/>
  <g id="svg_63"/>
  <g id="svg_64"/>
  <g id="svg_65"/>
 </g>
</svg>