<svg xmlns="http://www.w3.org/2000/svg" height="610pt" version="1.1" viewBox="-182 1 610 610.81862" width="610pt">
<g id="surface1">
<path d="M 41.753906 499.25 L 64.8125 71.3125 L 227.835938 80.09375 L 204.78125 508.035156 Z M 41.753906 499.25 " style=" stroke:none;fill-rule:nonzero;fill:rgb(96.078431%,68.235294%,27.058824%);fill-opacity:1;" />
<path d="M 85.175781 72.414062 L 88.472656 11.277344 L 210.738281 17.867188 L 207.445312 79 Z M 85.175781 72.414062 " style=" stroke:none;fill-rule:nonzero;fill:rgb(94.117647%,61.960784%,14.901961%);fill-opacity:1;" />
<path d="M 72.59375 500.949219 L 74.800781 460.179688 L 95.183594 461.28125 L 92.980469 502.050781 Z M 72.59375 500.949219 " style=" stroke:none;fill-rule:nonzero;fill:rgb(90.196078%,54.117647%,0%);fill-opacity:1;" />
<path d="M 113.363281 503.128906 L 115.566406 462.359375 L 135.953125 463.460938 L 133.746094 504.234375 Z M 113.363281 503.128906 " style=" stroke:none;fill-rule:nonzero;fill:rgb(90.196078%,54.117647%,0%);fill-opacity:1;" />
<path d="M 154.128906 505.300781 L 156.335938 464.53125 L 176.71875 465.632812 L 174.515625 506.402344 Z M 154.128906 505.300781 " style=" stroke:none;fill-rule:nonzero;fill:rgb(90.196078%,54.117647%,0%);fill-opacity:1;" />
<path d="M 76.394531 429.613281 L 78.601562 388.84375 L 98.984375 389.945312 L 96.78125 430.71875 Z M 76.394531 429.613281 " style=" stroke:none;fill-rule:nonzero;fill:rgb(90.196078%,54.117647%,0%);fill-opacity:1;" />
<path d="M 117.175781 431.785156 L 119.378906 391.015625 L 139.765625 392.117188 L 137.558594 432.890625 Z M 117.175781 431.785156 " style=" stroke:none;fill-rule:nonzero;fill:rgb(90.196078%,54.117647%,0%);fill-opacity:1;" />
<path d="M 157.941406 433.96875 L 160.148438 393.195312 L 180.53125 394.300781 L 178.328125 435.070312 Z M 157.941406 433.96875 " style=" stroke:none;fill-rule:nonzero;fill:rgb(90.196078%,54.117647%,0%);fill-opacity:1;" />
<path d="M 80.21875 358.261719 L 82.421875 317.492188 L 102.808594 318.59375 L 100.605469 359.363281 Z M 80.21875 358.261719 " style=" stroke:none;fill-rule:nonzero;fill:rgb(90.196078%,54.117647%,0%);fill-opacity:1;" />
<path d="M 120.988281 360.441406 L 123.191406 319.671875 L 143.578125 320.773438 L 141.371094 361.542969 Z M 120.988281 360.441406 " style=" stroke:none;fill-rule:nonzero;fill:rgb(90.196078%,54.117647%,0%);fill-opacity:1;" />
<path d="M 161.753906 362.625 L 163.960938 321.851562 L 184.34375 322.957031 L 182.140625 363.726562 Z M 161.753906 362.625 " style=" stroke:none;fill-rule:nonzero;fill:rgb(90.196078%,54.117647%,0%);fill-opacity:1;" />
<path d="M 84.03125 286.929688 L 86.234375 246.15625 L 106.621094 247.257812 L 104.414062 288.03125 Z M 84.03125 286.929688 " style=" stroke:none;fill-rule:nonzero;fill:rgb(90.196078%,54.117647%,0%);fill-opacity:1;" />
<path d="M 124.800781 289.109375 L 127.003906 248.339844 L 147.390625 249.441406 L 145.183594 290.210938 Z M 124.800781 289.109375 " style=" stroke:none;fill-rule:nonzero;fill:rgb(90.196078%,54.117647%,0%);fill-opacity:1;" />
<path d="M 165.566406 291.28125 L 167.773438 250.507812 L 188.15625 251.613281 L 185.953125 292.382812 Z M 165.566406 291.28125 " style=" stroke:none;fill-rule:nonzero;fill:rgb(90.196078%,54.117647%,0%);fill-opacity:1;" />
<path d="M 87.84375 215.574219 L 90.046875 174.800781 L 110.433594 175.90625 L 108.230469 216.675781 Z M 87.84375 215.574219 " style=" stroke:none;fill-rule:nonzero;fill:rgb(90.196078%,54.117647%,0%);fill-opacity:1;" />
<path d="M 128.613281 217.753906 L 130.816406 176.984375 L 151.203125 178.085938 L 148.996094 218.859375 Z M 128.613281 217.753906 " style=" stroke:none;fill-rule:nonzero;fill:rgb(90.196078%,54.117647%,0%);fill-opacity:1;" />
<path d="M 169.378906 219.9375 L 171.582031 179.164062 L 191.96875 180.265625 L 189.765625 221.039062 Z M 169.378906 219.9375 " style=" stroke:none;fill-rule:nonzero;fill:rgb(90.196078%,54.117647%,0%);fill-opacity:1;" />
<path d="M 91.667969 144.230469 L 93.871094 103.457031 L 114.257812 104.5625 L 112.050781 145.332031 Z M 91.667969 144.230469 " style=" stroke:none;fill-rule:nonzero;fill:rgb(90.196078%,54.117647%,0%);fill-opacity:1;" />
<path d="M 132.421875 146.421875 L 134.628906 105.648438 L 155.015625 106.753906 L 152.808594 147.523438 Z M 132.421875 146.421875 " style=" stroke:none;fill-rule:nonzero;fill:rgb(90.196078%,54.117647%,0%);fill-opacity:1;" />
<path d="M 173.191406 148.601562 L 175.394531 107.832031 L 195.78125 108.933594 L 193.574219 149.703125 Z M 173.191406 148.601562 " style=" stroke:none;fill-rule:nonzero;fill:rgb(90.196078%,54.117647%,0%);fill-opacity:1;" />
<path d="M 115.863281 73.96875 L 117.515625 43.394531 L 137.902344 44.496094 L 136.246094 75.074219 Z M 115.863281 73.96875 " style=" stroke:none;fill-rule:nonzero;fill:rgb(90.196078%,54.117647%,0%);fill-opacity:1;" />
<path d="M 156.628906 76.160156 L 158.285156 45.582031 L 178.667969 46.6875 L 177.015625 77.265625 Z M 156.628906 76.160156 " style=" stroke:none;fill-rule:nonzero;fill:rgb(90.196078%,54.117647%,0%);fill-opacity:1;" />
<path d="M 67.527344 20.378906 L 68.625 0 L 231.652344 8.78125 L 230.554688 29.160156 Z M 67.527344 20.378906 " style=" stroke:none;fill-rule:nonzero;fill:rgb(96.078431%,68.235294%,27.058824%);fill-opacity:1;" />
<path d="M 202.570312 548.777344 C 191.332031 548.199219 181.746094 556.824219 181.140625 568.0625 L 179.324219 600.8125 L 220.199219 600.8125 L 221.851562 570.265625 C 222.464844 559.011719 213.839844 549.390625 202.585938 548.777344 C 202.582031 548.777344 202.574219 548.777344 202.570312 548.777344 Z M 202.570312 548.777344 " style=" stroke:none;fill-rule:nonzero;fill:rgb(90.196078%,54.117647%,0%);fill-opacity:1;" />
<path d="M 140.339844 565.878906 C 140.84375 554.617188 132.128906 545.082031 120.871094 544.574219 C 109.757812 544.074219 100.289062 552.570312 99.585938 563.671875 L 97.546875 600.8125 L 138.421875 600.8125 Z M 140.339844 565.878906 " style=" stroke:none;fill-rule:nonzero;fill:rgb(90.196078%,54.117647%,0%);fill-opacity:1;" />
<path d="M 58.835938 561.480469 C 59.441406 550.207031 50.796875 540.582031 39.523438 539.976562 C 28.253906 539.371094 18.628906 548.015625 18.023438 559.285156 L 15.828125 600.039062 L 30.113281 600.8125 L 56.640625 600.8125 Z M 58.835938 561.480469 " style=" stroke:none;fill-rule:nonzero;fill:rgb(90.196078%,54.117647%,0%);fill-opacity:1;" />
<path d="M 39.550781 540.011719 C 50.789062 540.617188 59.414062 550.199219 58.835938 561.4375 L 56.710938 600.8125 L 97.585938 600.8125 L 99.628906 563.671875 C 100.335938 552.425781 110.03125 543.882812 121.277344 544.59375 C 132.382812 545.292969 140.878906 554.761719 140.378906 565.878906 L 138.460938 600.8125 L 179.324219 600.8125 L 181.089844 568.070312 C 181.695312 556.816406 191.3125 548.179688 202.566406 548.789062 C 213.824219 549.394531 222.457031 559.011719 221.851562 570.265625 L 225.136719 509.128906 L 21.398438 498.15625 L 18.101562 559.285156 C 18.714844 548.046875 28.308594 539.421875 39.550781 540.011719 Z M 39.550781 540.011719 " style=" stroke:none;fill-rule:nonzero;fill:rgb(96.078431%,68.235294%,27.058824%);fill-opacity:1;" />
<path d="M 45.0625 438.117188 L 46.160156 417.738281 L 209.183594 426.519531 L 208.085938 446.898438 Z M 45.0625 438.117188 " style=" stroke:none;fill-rule:nonzero;fill:rgb(98.039216%,73.72549%,37.254902%);fill-opacity:1;" />
<path d="M 48.898438 366.789062 L 49.996094 346.410156 L 213.019531 355.195312 L 211.921875 375.574219 Z M 48.898438 366.789062 " style=" stroke:none;fill-rule:nonzero;fill:rgb(98.039216%,73.72549%,37.254902%);fill-opacity:1;" />
<path d="M 52.726562 295.464844 L 53.824219 275.085938 L 216.847656 283.867188 L 215.75 304.246094 Z M 52.726562 295.464844 " style=" stroke:none;fill-rule:nonzero;fill:rgb(98.039216%,73.72549%,37.254902%);fill-opacity:1;" />
<path d="M 56.574219 224.15625 L 57.671875 203.777344 L 220.695312 212.5625 L 219.597656 232.941406 Z M 56.574219 224.15625 " style=" stroke:none;fill-rule:nonzero;fill:rgb(98.039216%,73.72549%,37.254902%);fill-opacity:1;" />
<path d="M 60.410156 152.832031 L 61.507812 132.453125 L 224.53125 141.234375 L 223.433594 161.613281 Z M 60.410156 152.832031 " style=" stroke:none;fill-rule:nonzero;fill:rgb(98.039216%,73.72549%,37.254902%);fill-opacity:1;" />
<path d="M 0.46875 507.246094 L 1.566406 486.871094 L 246.101562 500.042969 L 245.003906 520.421875 Z M 0.46875 507.246094 " style=" stroke:none;fill-rule:nonzero;fill:rgb(98.039216%,73.72549%,37.254902%);fill-opacity:1;" />
<path d="M 0.992188 590.609375 L 235.667969 590.609375 L 235.667969 611.015625 L 0.992188 611.015625 Z M 0.992188 590.609375 " style=" stroke:none;fill-rule:nonzero;fill:rgb(96.078431%,68.235294%,27.058824%);fill-opacity:1;" />
</g>
</svg>