<svg height="512pt" viewBox="-195 0 512 512.00943" width="512pt" xmlns="http://www.w3.org/2000/svg"><path d="m84.097656 255.652344v.085937l3.210938 39.3125 16.835937 206.101563c.078125 2.929687-1.066406 5.761718-3.15625 7.816406-2.089843 2.058594-4.9375 3.15625-7.867187 3.03125h-64.734375c-2.929688.125-5.777344-.972656-7.867188-3.03125-2.089843-2.054688-3.234375-4.886719-3.15625-7.816406l16.835938-206.101563 3.210937-39.3125zm0 0" fill="#d1d4d1"/><path d="m104.144531 303.730469h-86.78125c-4.792969 0-8.675781-3.886719-8.675781-8.679688s3.882812-8.679687 8.675781-8.679687h86.78125c4.792969 0 8.675781 3.886718 8.675781 8.679687s-3.882812 8.679688-8.675781 8.679688zm0 0" fill="#a5a5a4"/><path d="m60.753906 78.101562c-4.792968 0-8.679687-3.886718-8.679687-8.679687v-60.742187c0-4.792969 3.886719-8.679688 8.679687-8.679688 4.792969 0 8.679688 3.886719 8.679688 8.679688v60.742187c0 4.792969-3.886719 8.679687-8.679688 8.679687zm0 0" fill="#c03a2b"/><path d="m43.398438 141.363281v-61.351562c-.453126-5.296875 3.394531-9.992188 8.675781-10.589844h17.359375c5.28125.597656 9.128906 5.292969 8.675781 10.589844v61.351562zm0 0" fill="#d1d4d1"/><path d="m121.5 199.59375c0 33.546875-27.195312 60.746094-60.746094 60.746094-33.550781 0-60.7460935-27.199219-60.7460935-60.746094 0-33.550781 27.1953125-60.746094 60.7460935-60.746094 33.550782 0 60.746094 27.195313 60.746094 60.746094zm0 0" fill="#a5a5a4"/><path d="m121.5 199.59375c.023438 9.011719-1.992188 17.914062-5.902344 26.035156h-109.6875c-3.917968-8.121094-5.9374998-17.023437-5.9023435-26.035156-.0351563-2.910156.1992185-5.8125.6953125-8.679688h120.101563c.496093 2.867188.730468 5.769532.695312 8.679688zm0 0" fill="#f29c1f"/><path d="m60.753906 138.847656v52.066406h-60.050781c4.234375-29.898437 29.851563-52.109374 60.050781-52.066406zm0 0" fill="#5e5f62"/><path d="m60.753906 225.628906v34.710938c-23.46875.046875-44.84375-13.480469-54.84375-34.710938zm0 0" fill="#5e5f62"/><path d="m60.753906 190.914062v34.714844h-54.84375c-1.921875-3.988281-3.378906-8.179687-4.339844-12.5-.265624-.785156-.441406-1.601562-.519531-2.429687-.703125-3.660157-1.050781-7.378907-1.0429685-11.105469-.015625-1.828125.1015625-3.65625.3476565-5.46875-.019531-.992188.097656-1.984375.347656-2.949219v-.261719zm0 0" fill="#e57e25"/></svg>