<svg width="512" height="512.00688" xmlns="http://www.w3.org/2000/svg">

 <g>
  <title>background</title>
  <rect fill="none" id="canvas_background" height="402" width="582" y="-1" x="-1"/>
 </g>
 <g>
  <title>Layer 1</title>
  <path id="svg_1" fill="#7f8c8d" d="m255.62891,243.3125c4.14062,0.00391 8.26562,-0.48437 12.28906,-1.45703c0.23437,-0.29688 0.43359,-0.50391 0.70312,-0.80078l36.82032,-36.79297c0.19922,-0.19922 0.46093,-0.43359 0.66797,-0.60938c2.11718,-8.125 2.11718,-16.65625 0,-24.78125c-0.20704,-0.17578 -0.46875,-0.39062 -0.66797,-0.59375l-36.79297,-36.84375c-0.19922,-0.19921 -0.4336,-0.46093 -0.60938,-0.66796c-8.11718,-2.11719 -16.64453,-2.11719 -24.76562,0c-0.17578,0.20703 -0.40625,0.46875 -0.60938,0.66796l-36.84375,36.79297c-0.19922,0.19922 -0.46093,0.41797 -0.66797,0.58985c-2.11718,8.125 -2.11718,16.66015 0,24.78515c0.20704,0.17188 0.46875,0.40625 0.66797,0.60938l36.79297,36.84375c0.26953,0.29687 0.46875,0.5039 0.70313,0.80078c4.03125,0.97656 8.16406,1.46484 12.3125,1.45703zm0,0"/>
  <path id="svg_2" fill="#d25627" d="m345.1875,150.63281l-27.50781,27.59375c-1.6211,1.65235 -3.85156,2.56641 -6.16406,2.51563c-2.28125,0.01562 -4.46875,-0.89063 -6.07422,-2.51563l-18.39844,-18.39843l33.58594,-33.75391l24.55859,24.55859zm0,0"/>
  <path id="svg_3" fill="#f29c1f" d="m320.625,126.07031l30.375,-30.375l24.55469,24.5586l-30.375,30.375l-24.55469,-24.5586zm0,0"/>
  <path id="svg_4" fill="#d25627" d="m351,95.69922l-30.37109,30.375l-24.47266,-24.47266l30.28516,-30.46093l24.55859,24.55859zm0,0"/>
  <path id="svg_5" fill="#f29c1f" d="m381.28906,65.23828l-30.28906,30.46094l-24.55859,-24.55859l30.28906,-30.46094l24.55859,24.55859zm0,0"/>
  <path id="svg_6" fill="#d25627" d="m405.84766,89.79688l-30.28907,30.46093l-24.55859,-24.55859l30.28906,-30.46094l24.5586,24.5586zm0,0"/>
  <path id="svg_7" fill="#f29c1f" d="m434.91797,60.64063l-29.07031,29.15625l-24.5586,-24.5586l35.23047,-35.23047l18.39844,18.39844c3.36328,3.38281 3.36328,8.85156 0,12.23438zm0,0"/>
  <path id="svg_8" fill="#d25627" d="m416.51953,30.00781l-35.23047,35.23047l-24.55859,-24.55859l29.07031,-29.15625c3.38281,-3.36328 8.85156,-3.36328 12.23438,0l18.48437,18.48437zm0,0"/>
  <path id="svg_9" fill="#f29c1f" d="m320.62891,126.07422l-33.58594,33.75391l-18.39453,-18.39454c-1.625,-1.60546 -2.53125,-3.79296 -2.51563,-6.07421c-0.05078,-2.3125 0.86328,-4.54297 2.51563,-6.16407l27.50781,-27.59375l24.47266,24.47266zm0,0"/>
  <path id="svg_10" d="m416.51953,38.64063c-4.79297,0 -8.67578,-3.88282 -8.67578,-8.67579l0,-0.04296c0,-4.79297 3.88281,-8.67969 8.67578,-8.67969s8.67969,3.88672 8.67969,8.67969s-3.88672,8.67578 -8.67969,8.67578l0,0.04297zm0,0"/>
  <path id="svg_11" fill="#f29c1f" d="m245.12891,135.35938c0.01562,2.28125 -0.89453,4.46875 -2.51563,6.07421l-18.39844,18.39454l-33.7539,-33.58204l24.55859,-24.55859l27.59375,27.50781c1.65235,1.6211 2.5625,3.85157 2.51563,6.16407zm0,0"/>
  <path id="svg_12" fill="#d25627" d="m160.08984,95.875l24.55469,-24.55469l30.375,30.375l-24.55859,24.55469l-30.3711,-30.375zm0,0"/>
  <path id="svg_13" fill="#f29c1f" d="m190.46094,126.24609l-24.47266,24.47266l-30.46094,-30.28516l24.5586,-24.55859l30.375,30.37109zm0,0"/>
  <path id="svg_14" fill="#d25627" d="m160.08594,95.875l-24.5586,24.55859l-30.46093,-30.28906l24.55859,-24.55859l30.46094,30.28906zm0,0"/>
  <path id="svg_15" fill="#f29c1f" d="m184.64453,71.31641l-24.55859,24.55859l-30.46094,-30.28906l24.55859,-24.5586l30.46094,30.28907zm0,0"/>
  <path id="svg_16" fill="#d25627" d="m154.18359,41.02734l-24.55859,24.5586l-35.23047,-35.23047l18.39844,-18.39844c3.38281,-3.36328 8.84766,-3.36328 12.23437,0l29.15625,29.07031zm0,0"/>
  <path id="svg_17" fill="#f29c1f" d="m129.625,65.58594l-24.55859,24.55859l-29.15625,-29.07031c-3.36328,-3.38281 -3.36328,-8.85156 0,-12.23438l18.48437,-18.48437l35.23047,35.23047zm0,0"/>
  <path id="svg_18" fill="#d25627" d="m224.21484,159.82813l-18.39453,18.39843c-1.60547,1.625 -3.79297,2.53125 -6.07422,2.51563c-2.3164,0.05078 -4.54296,-0.86328 -6.16406,-2.51563l-27.59375,-27.50781l24.47266,-24.47266l33.7539,33.58204zm0,0"/>
  <path id="svg_19" d="m94.39453,39.03125l-0.08594,0c-4.78515,-0.02344 -8.64843,-3.91406 -8.63671,-8.69922c0.01171,-4.78125 3.89453,-8.65625 8.67968,-8.65625c4.78516,0 8.66407,3.875 8.67578,8.65625c0.01172,4.78516 -3.84765,8.67578 -8.63281,8.69922zm0,0"/>
  <path id="svg_20" fill="#d25627" d="m245.12891,247.12891c0.04687,2.3125 -0.86328,4.54297 -2.51563,6.16406l-27.50781,27.59375l-24.47266,-24.47266l33.58203,-33.7539l18.39844,18.39453c1.6211,1.60547 2.53125,3.79297 2.51563,6.07422zm0,0"/>
  <path id="svg_21" fill="#f29c1f" d="m215.10547,280.88672l-30.28906,30.46094l-24.5586,-24.5586l30.375,-30.375l24.47266,24.47266zm0,0"/>
  <path id="svg_22" fill="#d25627" d="m135.69922,262.22656l30.37109,-30.37109l24.5586,24.55469l-30.375,30.375l-24.55469,-24.5586zm0,0"/>
  <path id="svg_23" fill="#f29c1f" d="m160.25781,286.78906l-30.28515,30.46094l-24.5586,-24.55859l30.28516,-30.46094l24.55859,24.55859zm0,0"/>
  <path id="svg_24" fill="#d25627" d="m184.81641,311.34766l-30.28516,30.46093l-24.55859,-24.55859l30.28515,-30.46094l24.5586,24.5586zm0,0"/>
  <path id="svg_25" fill="#f29c1f" d="m154.53125,341.80859l-29.07031,29.15625c-3.38281,3.36329 -8.85156,3.36329 -12.23438,0l-18.48437,-18.39843l0,-0.08594l35.23047,-35.23047l24.55859,24.55859zm0,0"/>
  <path id="svg_26" fill="#d25627" d="m129.97266,317.25l-35.23047,35.23047l-18.39844,-18.39844c-3.36328,-3.38281 -3.36328,-8.85156 0,-12.23437l29.07031,-29.15625l24.5586,24.55859zm0,0"/>
  <path id="svg_27" fill="#f29c1f" d="m224.21484,222.66016l-33.58203,33.7539l-24.55859,-24.55859l27.50781,-27.59375c1.6211,-1.65234 3.84766,-2.56641 6.16406,-2.51563c2.28125,-0.01562 4.46875,0.89063 6.07422,2.51563l18.39453,18.39844zm0,0"/>
  <path id="svg_28" fill="#d25627" d="m320.62891,256.41406l-24.47266,24.47266l-27.50781,-27.59375c-1.65235,-1.62109 -2.56641,-3.85156 -2.51563,-6.16406c-0.01562,-2.28125 0.89063,-4.46875 2.51563,-6.07422l18.39453,-18.39453l33.58594,33.7539zm0,0"/>
  <path id="svg_29" fill="#f29c1f" d="m351,286.78906l0,0.08594l-24.55859,24.47266l-30.28516,-30.46094l24.47266,-24.47266l0.08593,0l30.28516,30.375zm0,0"/>
  <path id="svg_30" fill="#d25627" d="m320.67578,256.41797l24.53906,-24.53906l30.34766,30.35156l-24.53906,24.53906l-30.34766,-30.35156zm0,0"/>
  <path id="svg_31" fill="#d25627" d="m326.42578,311.40625l24.53906,-24.53906l30.34766,30.34765l-24.53906,24.53907l-30.34766,-30.34766zm0,0"/>
  <path id="svg_32" fill="#f29c1f" d="m405.84766,292.69141l-24.47266,24.55859l-0.08594,0l-30.28906,-30.375l0,-0.08594l24.55859,-24.55859l30.28907,30.46094zm0,0"/>
  <path id="svg_33" fill="#d25627" d="m434.91797,334.08203l-18.39844,18.39844l-35.14453,-35.23047l24.47266,-24.55859l29.07031,29.15625c3.36328,3.38281 3.36328,8.85156 0,12.23437zm0,0"/>
  <path id="svg_34" fill="#f29c1f" d="m345.1875,231.85547l-24.47266,24.55859l-0.08593,0l-33.58594,-33.7539l18.39844,-18.39844c1.60547,-1.625 3.79297,-2.53125 6.07422,-2.51563c2.3125,-0.05078 4.54296,0.86329 6.16406,2.51563l27.50781,27.59375zm0,0"/>
  <path id="svg_35" fill="#f29c1f" d="m416.51953,352.48047l0,0.08594l-18.48437,18.39843c-3.38282,3.36329 -8.85157,3.36329 -12.23438,0l-29.07031,-29.15625l24.55859,-24.55859l0.08594,0l35.14453,35.23047zm0,0"/>
  <path id="svg_36" fill="#bdc3c7" d="m255.62891,512.32813l91.25,0c5.2539,0 10.22656,-2.37891 13.51953,-6.47266c3.29687,-4.08984 4.55859,-9.45703 3.4375,-14.58984l-39.91797,-182.42579l-55.3125,-55.53906c-3.09766,-3.09766 -3.39844,-8.01953 -0.70313,-11.47266c-8.07812,1.94532 -16.5,1.94532 -24.57812,0c2.69531,3.45313 2.39453,8.375 -0.70313,11.47266l-55.3125,55.53906l-39.91796,182.42579c-1.125,5.14062 0.14453,10.51171 3.44921,14.60546c3.30079,4.09375 8.28125,6.46875 13.54297,6.45703l91.2461,0.00001zm0,0"/>
  <path id="svg_37" fill="#95a5a5" d="m346.92188,512.32813l-91.29297,0l0,-269.01563c4.15625,0.03906 8.29687,-0.45703 12.32422,-1.47656c-2.71094,3.4414 -2.41016,8.36719 0.69531,11.45703l55.27734,55.53906l39.91797,182.41016c1.12891,5.1289 -0.125,10.49609 -3.41406,14.59375c-3.28516,4.09765 -8.25391,6.48437 -13.50781,6.49219zm0,0"/>
  <path id="svg_38" fill="#464f5d" d="m255.62891,434.22656c9.58593,0 17.35937,7.76953 17.35937,17.35547l0,60.7461l-34.71484,0l0,-60.7461c0,-9.58594 7.77344,-17.35547 17.35547,-17.35547zm0,0"/>
  <g id="svg_39" fill="#7f8c8d">
   <path id="svg_40" d="m264.30859,390.83594c0,4.79297 -3.88671,8.67969 -8.67968,8.67969c-4.79297,0 -8.67578,-3.88672 -8.67578,-8.67969c0,-4.79297 3.88281,-8.67578 8.67578,-8.67578c4.79297,0 8.67968,3.88281 8.67968,8.67578zm0,0"/>
   <path id="svg_41" d="m264.30859,356.125c0,4.79297 -3.88671,8.67969 -8.67968,8.67969c-4.79297,0 -8.67578,-3.88672 -8.67578,-8.67969s3.88281,-8.67578 8.67578,-8.67578c4.79297,0 8.67968,3.88281 8.67968,8.67578zm0,0"/>
   <path id="svg_42" d="m264.30859,321.41406c0,4.79297 -3.88671,8.67578 -8.67968,8.67578c-4.79297,0 -8.67578,-3.88281 -8.67578,-8.67578c0,-4.79297 3.88281,-8.67968 8.67578,-8.67968c4.79297,0 8.67968,3.88671 8.67968,8.67968zm0,0"/>
   <path id="svg_43" d="m264.30859,286.70313c0,4.79296 -3.88671,8.67578 -8.67968,8.67578c-4.79297,0 -8.67578,-3.88282 -8.67578,-8.67578s3.88281,-8.67969 8.67578,-8.67969c4.79297,0 8.67968,3.88672 8.67968,8.67969zm0,0"/>
  </g>
  <path id="svg_45" fill="#802f34" d="m267.89063,187.66016c-3.50391,0 -6.66797,-2.11328 -8.01172,-5.35157c-1.34375,-3.23828 -0.60547,-6.96875 1.87109,-9.45312l148.58203,-149.02734c2.17578,-2.25782 5.40235,-3.16797 8.4375,-2.37891c3.03516,0.79297 5.40625,3.15625 6.20703,6.19141c0.79688,3.03125 -0.10156,6.25781 -2.35547,8.4414l-148.58593,149.02735c-1.625,1.63281 -3.83594,2.55078 -6.14453,2.55078zm0,0"/>
  <path id="svg_46" fill="#802f34" d="m243.36719,187.66016c-2.29688,0.0039 -4.50391,-0.90625 -6.125,-2.53516l-149.02735,-148.58984c-3.29296,-3.40235 -3.2539,-8.81641 0.08985,-12.16797c3.33984,-3.35156 8.7539,-3.40625 12.16406,-0.1211l149.02734,148.59375c2.48438,2.47657 3.23047,6.21094 1.89063,9.45704c-1.33984,3.24609 -4.50781,5.36328 -8.01953,5.36328zm0,0"/>
  <path id="svg_47" fill="#802f34" d="m94.78516,361.21094c-3.50782,0 -6.66797,-2.11328 -8.01563,-5.35156c-1.34375,-3.23829 -0.60547,-6.96875 1.8711,-9.45313l148.58203,-149.02734c2.1914,-2.20313 5.38672,-3.07032 8.39062,-2.27735c3.00391,0.79688 5.35156,3.13282 6.16406,6.12891c0.81641,2.99609 -0.03125,6.19922 -2.22265,8.40234l-148.625,149.02735c-1.62891,1.63281 -3.83985,2.55078 -6.14453,2.55078zm0,0"/>
  <path id="svg_48" fill="#802f34" d="m416.47656,361.21094c-2.30468,0 -4.51562,-0.91797 -6.14453,-2.55078l-148.58203,-149.02735c-2.25391,-2.18359 -3.15234,-5.41015 -2.35547,-8.4414c0.79688,-3.03516 3.17188,-5.39844 6.20703,-6.19141c3.03516,-0.78906 6.25782,0.12109 8.4336,2.37891l148.58593,149.02734c2.47657,2.48438 3.21485,6.21484 1.86719,9.45313c-1.34375,3.23828 -4.5039,5.35156 -8.01172,5.35156zm0,0"/>
  <path id="svg_49" fill="#59474e" d="m281.66406,191.24609c0,14.375 -11.65625,26.03125 -26.03515,26.03125c-14.375,0 -26.03125,-11.65625 -26.03125,-26.03125c0,-14.3789 11.65625,-26.03515 26.03125,-26.03515c14.3789,0 26.03515,11.65625 26.03515,26.03515zm0,0"/>
 </g>
</svg>